<svg width="18" height="18" viewBox="0 0 18 18" fill="none" xmlns="http://www.w3.org/2000/svg">
<path d="M3.99963 9.70236L12.0099 17.7124C12.1951 17.8979 12.4424 18 12.7061 18C12.9699 18 13.2172 17.8979 13.4024 17.7124L13.9923 17.1227C14.3762 16.7384 14.3762 16.1138 13.9923 15.7301L7.26595 9.00373L13.9998 2.26988C14.1851 2.08447 14.2874 1.8373 14.2874 1.57374C14.2874 1.30989 14.1851 1.06272 13.9998 0.877162L13.4099 0.287557C13.2245 0.102144 12.9773 -7.94758e-07 12.7136 -7.94758e-07C12.4499 -7.94758e-07 12.2026 0.102144 12.0173 0.287557L3.99963 8.30496C3.81393 8.49095 3.71193 8.73929 3.71251 9.00329C3.71193 9.26831 3.81393 9.51651 3.99963 9.70236Z" fill="black"/>
</svg>
