<svg width="18" height="18" viewBox="0 0 18 18" fill="none" xmlns="http://www.w3.org/2000/svg">
<path d="M14.0004 8.29764L5.99014 0.287559C5.80487 0.102146 5.55756 0 5.29385 0C5.03015 0 4.78283 0.102146 4.59757 0.287559L4.00767 0.87731C3.62382 1.2616 3.62382 1.88618 4.00767 2.26988L10.7341 8.99627L4.00021 15.7301C3.81494 15.9155 3.71265 16.1627 3.71265 16.4263C3.71265 16.6901 3.81494 16.9373 4.00021 17.1228L4.5901 17.7124C4.77552 17.8979 5.02269 18 5.28639 18C5.5501 18 5.79741 17.8979 5.98268 17.7124L14.0004 9.69504C14.1861 9.50905 14.2881 9.26071 14.2875 8.99671C14.2881 8.73169 14.1861 8.48349 14.0004 8.29764Z" fill="black"/>
</svg>
